<?xml version="1.0" encoding="UTF-8" standalone="no"?>
<!-- Created with Inkscape (http://www.inkscape.org/) -->

<svg
   xmlns:dc="http://purl.org/dc/elements/1.1/"
   xmlns:cc="http://creativecommons.org/ns#"
   xmlns:rdf="http://www.w3.org/1999/02/22-rdf-syntax-ns#"
   xmlns:svg="http://www.w3.org/2000/svg"
   xmlns="http://www.w3.org/2000/svg"
   xmlns:sodipodi="http://sodipodi.sourceforge.net/DTD/sodipodi-0.dtd"
   xmlns:inkscape="http://www.inkscape.org/namespaces/inkscape"
   width="910mm"
   height="910mm"
   viewBox="0 0 910 910"
   version="1.1"
   id="svg824"
   inkscape:version="0.92.2 (5c3e80d, 2017-08-06)"
   sodipodi:docname="7567567567567.svg">
  <defs
     id="defs818" />
  <sodipodi:namedview
     id="base"
     pagecolor="#ffffff"
     bordercolor="#666666"
     borderopacity="1.0"
     inkscape:pageopacity="0.0"
     inkscape:pageshadow="2"
     inkscape:zoom="0.17307693"
     inkscape:cx="1380.5094"
     inkscape:cy="1808.9162"
     inkscape:document-units="mm"
     inkscape:current-layer="text901"
     showgrid="false"
     inkscape:window-width="1920"
     inkscape:window-height="1057"
     inkscape:window-x="-8"
     inkscape:window-y="-8"
     inkscape:window-maximized="1"
     inkscape:snap-global="false"
     showborder="true"
     inkscape:pagecheckerboard="false"
     inkscape:showpageshadow="true"
     borderlayer="false" />
  <metadata
     id="metadata821">
    <rdf:RDF>
      <cc:Work
         rdf:about="">
        <dc:format>image/svg+xml</dc:format>
        <dc:type
           rdf:resource="http://purl.org/dc/dcmitype/StillImage" />
        <dc:title></dc:title>
      </cc:Work>
    </rdf:RDF>
  </metadata>
  <g
     inkscape:label="Layer 1"
     inkscape:groupmode="layer"
     id="layer1"
     transform="translate(0,613)">
    <path
       style="fill:#000000;fill-opacity:1;stroke:none;stroke-width:0.90799975"
       d="M 266.9474,295.99985 1,30.052643 1.0005,-346.05279 266.9472,-612 643.0531,-611.99961 909,-346.05276 909.0002,30.052925 643.0532,296 Z"
       id="path3831"
       inkscape:connector-curvature="0"
       sodipodi:nodetypes="ccccccccc" />
    <path
       sodipodi:nodetypes="ccccccccc"
       inkscape:connector-curvature="0"
       id="path2111"
       d="m 268.6039,-607.99946 372.7926,-1.5e-4 263.6032,263.60392 L 905,28.39637 641.3959,292 268.6039,291.99999 5,28.39644 V -344.3958 Z"
       style="fill:#ffffff;fill-opacity:1;stroke:none;stroke-width:0.89999974" />
    <path
       style="fill:#dc0a14;fill-opacity:1;stroke:none;stroke-width:0.79000014"
       d="M 291.3857,236.99995 60.0003,5.614634 l -2e-4,-327.229024 231.3854,-231.3859 327.2289,3.4e-4 231.3852,231.38522 6e-4,327.229033 -231.3858,231.385727 z"
       id="path2113"
       inkscape:connector-curvature="0"
       sodipodi:nodetypes="ccccccccc" />
    <g
       aria-label="STOP"
       style="font-style:normal;font-variant:normal;font-weight:normal;font-stretch:normal;font-size:441.82620239px;line-height:1.25;font-family:'DIN 1451 Engschrift';-inkscape-font-specification:'DIN 1451 Engschrift';letter-spacing:0px;word-spacing:0px;fill:#00ffff;fill-opacity:1;stroke:none;stroke-width:11.04565525"
       id="text2146"
       transform="translate(-10.690784,474.67068)" />
    <text
       xml:space="preserve"
       style="font-style:normal;font-variant:normal;font-weight:normal;font-stretch:normal;font-size:414.57489014px;line-height:1.25;font-family:'Old Road Signs Font';-inkscape-font-specification:'Old Road Signs Font';letter-spacing:0px;word-spacing:0px;fill:#000000;fill-opacity:1;stroke:none;stroke-width:10.36437225"
       x="120.6279"
       y="474.04071"
       id="text834"><tspan
         sodipodi:role="line"
         id="tspan832"
         x="120.6279"
         y="847.47089"
         style="font-style:normal;font-variant:normal;font-weight:normal;font-stretch:normal;font-family:'Old Road Signs Font';-inkscape-font-specification:'Old Road Signs Font';stroke-width:10.36437225" /></text>
    <g
       aria-label="STOP"
       style="font-style:normal;font-variant:normal;font-weight:normal;font-stretch:normal;font-size:441.82620239px;line-height:0;font-family:'DIN 1451 Engschrift';-inkscape-font-specification:'DIN 1451 Engschrift';letter-spacing:-0.0079375px;word-spacing:0px;fill:#ffcc00;fill-opacity:1;stroke:none;stroke-width:11.04565525"
       id="text901"
       transform="translate(10.83904,868.82643)">
      <path
         id="path829"
         style="font-style:normal;font-variant:normal;font-weight:normal;font-stretch:normal;font-size:441.82620239px;line-height:0;font-family:'DIN 1451 Engschrift';-inkscape-font-specification:'DIN 1451 Engschrift';letter-spacing:-0.0079375px;word-spacing:0px;fill:#ffffff;fill-opacity:1;fill-rule:nonzero;stroke:none;stroke-width:1.23583937"
         d="m 95.16096,-963.63433 h 42.047 v 15.7768 c 0,15.9878 12.9578,28.9542 28.8978,28.9542 h 2.6359 c 15.9696,0 28.9027,-12.9664 28.9027,-28.9542 v -31.5771 c 0,-11.7983 -7.136,-22.40457 -18.0509,-26.83107 l -37.4803,-15.2021 c -26.7968,-10.8854 -44.316,-36.9306 -44.316,-65.8666 v -18.4362 c 0,-39.2231 31.7696,-71.0559 70.9445,-71.0559 39.2045,0 70.9695,31.8328 70.9695,71.0559 v 15.7999 h -42.0668 v -15.7999 c 0,-15.983 -12.9331,-28.936 -28.9027,-28.936 -15.9696,0 -28.8975,12.953 -28.8975,28.936 v 18.4362 c 0,11.78 7.1308,22.3859 18.0457,26.8079 l 37.5039,15.2256 c 26.7982,10.8667 44.3174,36.9105 44.3174,65.86627 v 31.5771 c 0,39.2279 -31.765,71.0311 -70.9695,71.0311 h -2.6359 c -39.1749,0 -70.9448,-31.8032 -70.9448,-71.0311"
         inkscape:connector-curvature="0"
         sodipodi:nodetypes="ccsssssccssssccssssccssssc" />
      <path
         id="path831"
         style="font-style:normal;font-variant:normal;font-weight:normal;font-stretch:normal;font-size:441.82620239px;line-height:0;font-family:'DIN 1451 Engschrift';-inkscape-font-specification:'DIN 1451 Engschrift';letter-spacing:-0.0079375px;word-spacing:0px;fill:#ffffff;fill-opacity:1;fill-rule:nonzero;stroke:none;stroke-width:1.23524868"
         d="m 368.36096,-879.47643 v -252.70007 h 49.9 v -42 h -141.8 v 42 h 49.9 v 252.70007 z"
         inkscape:connector-curvature="0"
         sodipodi:nodetypes="ccccccccc" />
      <path
         inkscape:connector-curvature="0"
         id="path841"
         d="m 530.36086,-1176.8267 c -39.2785,0 -70.9,31.6215 -70.9,70.9001 v 158.20007 c 0,39.2786 31.6215,70.9001 70.9,70.9001 39.2786,0 70.9001,-31.6215 70.9001,-70.9001 v -158.20007 c 0,-39.2786 -31.6215,-70.9001 -70.9001,-70.9001 z m 0,42 c 16.0106,0 28.9001,12.8895 28.9001,28.9001 v 158.20007 c 0,16.0106 -12.8895,28.9001 -28.9001,28.9001 -16.0105,0 -28.9,-12.8895 -28.9,-28.9001 v -158.20007 c 0,-16.0106 12.8895,-28.9001 28.9,-28.9001 z"
         style="font-style:normal;font-variant:normal;font-weight:normal;font-stretch:normal;font-size:441.82620239px;line-height:0;font-family:'DIN 1451 Engschrift';-inkscape-font-specification:'DIN 1451 Engschrift';letter-spacing:-0.0079375px;word-spacing:0px;opacity:1;fill:#ffffff;fill-opacity:1;stroke:none;stroke-width:0.05798499;stroke-linecap:square;stroke-linejoin:round;stroke-miterlimit:10;stroke-dasharray:none;stroke-opacity:1;paint-order:stroke fill markers" />
      <path
         style="font-style:normal;font-variant:normal;font-weight:normal;font-stretch:normal;font-size:441.82620239px;line-height:0;font-family:'DIN 1451 Engschrift';-inkscape-font-specification:'DIN 1451 Engschrift';letter-spacing:-0.0079375px;word-spacing:0px;fill:#ffffff;fill-opacity:1;fill-rule:nonzero;stroke:none;stroke-width:1.23565948"
         d="m 726.83755,-995.24663 c 68.68525,0 68.32346,-68.40507 68.32346,-68.40507 v -42.1194 c 0,0 0.36179,-68.4051 -68.32346,-68.4051 h -68.32659 v 294.69977 h 42.06 v -115.7702 z m 0,-42.16167 h -26.26659 v -94.6061 h 26.26659 c 26.39626,0 26.52347,26.2433 26.52347,26.2433 v 42.1194 c 0,0 -0.12721,26.2434 -26.52347,26.2434 z"
         id="path852"
         inkscape:connector-curvature="0"
         sodipodi:nodetypes="sccsccccssccsccs" />
    </g>
  </g>
</svg>
