<?xml version="1.0" encoding="UTF-8" standalone="no"?>
<!-- Created with Inkscape (http://www.inkscape.org/) -->

<svg
   xmlns:dc="http://purl.org/dc/elements/1.1/"
   xmlns:cc="http://creativecommons.org/ns#"
   xmlns:rdf="http://www.w3.org/1999/02/22-rdf-syntax-ns#"
   xmlns:svg="http://www.w3.org/2000/svg"
   xmlns="http://www.w3.org/2000/svg"
   xmlns:sodipodi="http://sodipodi.sourceforge.net/DTD/sodipodi-0.dtd"
   xmlns:inkscape="http://www.inkscape.org/namespaces/inkscape"
   width="61mm"
   height="61mm"
   viewBox="0 0 61 61"
   version="1.1"
   id="svg2000"
   inkscape:version="0.92.2 (5c3e80d, 2017-08-06)"
   sodipodi:docname="11.svg">
  <defs
     id="defs1994" />
  <sodipodi:namedview
     id="base"
     pagecolor="#ffffff"
     bordercolor="#666666"
     borderopacity="1.0"
     inkscape:pageopacity="0.0"
     inkscape:pageshadow="2"
     inkscape:zoom="1.4"
     inkscape:cx="116.75327"
     inkscape:cy="48.436978"
     inkscape:document-units="mm"
     inkscape:current-layer="layer1"
     showgrid="false"
     inkscape:window-width="1920"
     inkscape:window-height="1057"
     inkscape:window-x="-8"
     inkscape:window-y="-8"
     inkscape:window-maximized="1" />
  <metadata
     id="metadata1997">
    <rdf:RDF>
      <cc:Work
         rdf:about="">
        <dc:format>image/svg+xml</dc:format>
        <dc:type
           rdf:resource="http://purl.org/dc/dcmitype/StillImage" />
        <dc:title></dc:title>
      </cc:Work>
    </rdf:RDF>
  </metadata>
  <g
     inkscape:label="Layer 1"
     inkscape:groupmode="layer"
     id="layer1"
     transform="translate(0,-236)">
    <circle
       style="opacity:1;fill:#dc0a14;fill-opacity:1;fill-rule:nonzero;stroke:none;stroke-width:0.18410923;stroke-linecap:square;stroke-linejoin:round;stroke-miterlimit:4;stroke-dasharray:none;stroke-opacity:1;paint-order:stroke fill markers"
       id="path17"
       cx="30.500002"
       cy="266.5"
       r="30.000002" />
    <circle
       r="24"
       cy="266.5"
       cx="30.500002"
       id="circle1748"
       style="opacity:1;fill:#ffffff;fill-opacity:1;fill-rule:nonzero;stroke:none;stroke-width:0.14728737;stroke-linecap:square;stroke-linejoin:round;stroke-miterlimit:4;stroke-dasharray:none;stroke-opacity:1;paint-order:stroke fill markers" />
    <path
       style="fill:#000000;fill-rule:nonzero;stroke:none;stroke-width:0.21132465;fill-opacity:1"
       d="m 28.28994,252.74958 c -2.93279,0.0259 -5.2642,0.28489 -6.96966,0.44928 -1.4338,0.1511 -3.08114,1.19431 -3.57048,3.1451 l -1.55433,6.02283 c -0.77785,0.34082 -1.81745,1.53642 -1.84547,3.52148 l 0.48569,5.73148 c 0.1156,1.07365 0.50579,2.33805 1.33595,2.82941 V 278.25 h 3.76437 v -3.76428 c 2.42457,0.17499 9.59779,0.24988 10.56399,0.2428 0.9662,0.007 8.14003,-0.0676 10.56461,-0.2428 V 278.25 h 3.76374 v -3.80084 c 0.83016,-0.49136 1.22035,-1.75576 1.33595,-2.82941 l 0.4857,-5.73148 c -0.0281,-1.98506 -1.06763,-3.18066 -1.8455,-3.52148 l -1.55431,-6.02283 c -0.48935,-1.95079 -2.13667,-2.994 -3.57048,-3.1451 -1.70546,-0.16439 -4.03687,-0.42387 -6.96966,-0.44928 z"
       id="path2944"
       inkscape:connector-curvature="0"
       sodipodi:nodetypes="cccccccccccccccccccccc" />
    <path
       style="fill:#ffffff;fill-opacity:1;fill-rule:nonzero;stroke:none;stroke-width:0.21131554"
       d="m 18.455,262.04913 1.1533,-5.41579 c 0.22938,-0.9043 1.00668,-1.44001 1.71238,-1.55361 l 3.08403,-0.2917 c 1.32373,-0.14545 4.43291,-0.21123 6.09529,-0.21845 1.6624,0.007 4.77157,0.0723 6.09529,0.21845 l 3.08466,0.2917 c 0.70571,0.1136 1.48236,0.64931 1.71175,1.55361 l 1.1533,5.41579 c -4.72197,-0.41363 -9.1929,-0.50692 -12.045,-0.55848 -2.85212,0.0525 -7.32302,0.14485 -12.045,0.55848 z"
       id="path2986"
       inkscape:connector-curvature="0" />
    <rect
       style="opacity:1;fill:#ffffff;fill-opacity:1;fill-rule:nonzero;stroke:none;stroke-width:16.42281532;stroke-linecap:square;stroke-linejoin:round;stroke-miterlimit:4;stroke-dasharray:none;stroke-opacity:1;paint-order:stroke fill markers"
       id="rect3037"
       width="24.285759"
       height="1.0928609"
       x="18.357145"
       y="264.77148" />
    <rect
       y="266.95673"
       x="18.357145"
       height="1.0928609"
       width="24.285759"
       id="rect3048"
       style="opacity:1;fill:#ffffff;fill-opacity:1;fill-rule:nonzero;stroke:none;stroke-width:16.42281532;stroke-linecap:square;stroke-linejoin:round;stroke-miterlimit:4;stroke-dasharray:none;stroke-opacity:1;paint-order:stroke fill markers" />
    <circle
       r="3.0357199"
       cy="266.16724"
       cx="17.932142"
       id="circle3061"
       style="opacity:1;fill:#000000;fill-opacity:1;fill-rule:nonzero;stroke:none;stroke-width:16.77464294;stroke-linecap:square;stroke-linejoin:round;stroke-miterlimit:4;stroke-dasharray:none;stroke-opacity:1;paint-order:stroke fill markers" />
    <circle
       style="opacity:1;fill:#ffffff;fill-opacity:1;fill-rule:nonzero;stroke:none;stroke-width:11.0712595;stroke-linecap:square;stroke-linejoin:round;stroke-miterlimit:4;stroke-dasharray:none;stroke-opacity:1;paint-order:stroke fill markers"
       id="circle3063"
       cx="17.932142"
       cy="266.16724"
       r="2.0035765" />
    <circle
       style="opacity:1;fill:#000000;fill-opacity:1;fill-rule:nonzero;stroke:none;stroke-width:16.77464294;stroke-linecap:square;stroke-linejoin:round;stroke-miterlimit:4;stroke-dasharray:none;stroke-opacity:1;paint-order:stroke fill markers"
       id="circle3087"
       cx="43.067787"
       cy="266.16724"
       r="3.0357199" />
    <circle
       r="2.0035765"
       cy="266.16724"
       cx="43.067787"
       id="circle3089"
       style="opacity:1;fill:#ffffff;fill-opacity:1;fill-rule:nonzero;stroke:none;stroke-width:11.0712595;stroke-linecap:square;stroke-linejoin:round;stroke-miterlimit:4;stroke-dasharray:none;stroke-opacity:1;paint-order:stroke fill markers" />
    <rect
       y="181.01065"
       x="-169.87718"
       height="58"
       width="6"
       id="rect869"
       style="opacity:1;fill:#dc0a14;fill-opacity:1;fill-rule:nonzero;stroke:none;stroke-width:1.7125293;stroke-linecap:square;stroke-linejoin:round;stroke-miterlimit:4;stroke-dasharray:none;stroke-opacity:1;paint-order:stroke fill markers"
       transform="rotate(-45)" />
  </g>
</svg>
