<?xml version="1.0" encoding="UTF-8" standalone="no"?>
<!-- Created with Inkscape (http://www.inkscape.org/) -->

<svg
   xmlns:dc="http://purl.org/dc/elements/1.1/"
   xmlns:cc="http://creativecommons.org/ns#"
   xmlns:rdf="http://www.w3.org/1999/02/22-rdf-syntax-ns#"
   xmlns:svg="http://www.w3.org/2000/svg"
   xmlns="http://www.w3.org/2000/svg"
   xmlns:sodipodi="http://sodipodi.sourceforge.net/DTD/sodipodi-0.dtd"
   xmlns:inkscape="http://www.inkscape.org/namespaces/inkscape"
   width="61mm"
   height="61mm"
   viewBox="0 0 61 61"
   version="1.1"
   id="svg2000"
   inkscape:version="0.92.2 (5c3e80d, 2017-08-06)"
   sodipodi:docname="11.svg">
  <defs
     id="defs1994" />
  <sodipodi:namedview
     id="base"
     pagecolor="#ffffff"
     bordercolor="#666666"
     borderopacity="1.0"
     inkscape:pageopacity="0.0"
     inkscape:pageshadow="2"
     inkscape:zoom="2.8284271"
     inkscape:cx="144.65687"
     inkscape:cy="96.945617"
     inkscape:document-units="mm"
     inkscape:current-layer="layer1"
     showgrid="false"
     inkscape:window-width="1920"
     inkscape:window-height="1057"
     inkscape:window-x="-8"
     inkscape:window-y="-8"
     inkscape:window-maximized="1" />
  <metadata
     id="metadata1997">
    <rdf:RDF>
      <cc:Work
         rdf:about="">
        <dc:format>image/svg+xml</dc:format>
        <dc:type
           rdf:resource="http://purl.org/dc/dcmitype/StillImage" />
        <dc:title></dc:title>
      </cc:Work>
    </rdf:RDF>
  </metadata>
  <g
     inkscape:label="Layer 1"
     inkscape:groupmode="layer"
     id="layer1"
     transform="translate(0,-236)">
    <circle
       style="opacity:1;fill:#dc0a14;fill-opacity:1;fill-rule:nonzero;stroke:none;stroke-width:0.18410923;stroke-linecap:square;stroke-linejoin:round;stroke-miterlimit:4;stroke-dasharray:none;stroke-opacity:1;paint-order:stroke fill markers"
       id="path17"
       cx="30.500002"
       cy="266.5"
       r="30.000002" />
    <circle
       r="24"
       cy="266.5"
       cx="30.500002"
       id="circle1748"
       style="opacity:1;fill:#ffffff;fill-opacity:1;fill-rule:nonzero;stroke:none;stroke-width:0.14728737;stroke-linecap:square;stroke-linejoin:round;stroke-miterlimit:4;stroke-dasharray:none;stroke-opacity:1;paint-order:stroke fill markers" />
    <path
       style="fill:#000000;fill-rule:nonzero;stroke:none;stroke-width:0.5153361;fill-opacity:1"
       d="m 26.192513,254.5007 c -0.645278,0.0178 -1.266528,0.29864 -1.708423,0.7953 -0.589653,0.66183 -0.76252,1.59696 -0.449068,2.42621 l -2.528012,6.26318 c -1.136295,-0.6916 -2.437201,-1.06627 -3.767211,-1.08468 v 0.31367 c -3.379591,-0.0488 -6.329947,2.28241 -7.067269,5.58416 -0.7371586,3.30192 0.940957,6.66864 4.019909,8.06462 3.078974,1.39582 6.714248,0.43803 8.707479,-2.29443 l 0.253215,0.18396 c 2.383591,-3.26778 1.727997,-7.8421 -1.476913,-10.30789 l 0.433049,-1.07281 7.825362,6.80941 c -0.352072,0.72772 -0.281087,1.58975 0.185002,2.24999 0.46639,0.66028 1.253864,1.01459 2.056721,0.92552 l 0.464572,1.52084 h -0.487309 v 0.79323 h 2.020548 v -0.79323 h -0.704349 l -0.533818,-1.74769 c 0.669911,-0.34043 1.122188,-0.99693 1.201994,-1.7446 h 5.17e-4 l 1.338419,-0.0879 c 0.483963,3.64278 3.650238,6.32396 7.31945,6.19755 3.669229,-0.1264 6.643627,-3.01888 6.876066,-6.68641 l 0.312126,0.0233 c 0.131443,-2.05583 -0.59264,-4.07466 -2.000911,-5.57743 -1.408118,-1.50249 -3.374546,-2.3549 -5.432745,-2.3549 -1.156441,0 -2.297705,0.27023 -3.332096,0.78807 l -2.036567,-3.53157 0.75551,-1.69809 2.067573,-0.94361 c 0.296344,-0.13516 0.459118,-0.45842 0.390673,-0.77721 -0.06843,-0.3187 -0.349686,-0.54689 -0.67541,-0.54829 -1.710359,-0.0574 -3.421758,-0.0826 -5.13302,-0.077 -0.235476,-0.0107 -0.446286,0.14472 -0.507463,0.37259 -0.06107,0.22794 0.04441,0.46779 0.253215,0.57723 0.897507,0.49314 1.816774,0.94544 2.75487,1.35599 l -0.74104,1.66604 H 23.936836 l 0.963766,-2.38745 c -0.330711,-0.55083 -0.296759,-1.24676 0.08578,-1.76268 0.382766,-0.51597 1.038666,-0.75012 1.66088,-0.59273 l 0.0057,0.002 1.396814,0.35553 0.383955,0.0977 0.195337,-0.76895 -0.383956,-0.0977 -1.402498,-0.35708 h -0.0026 c -0.214647,-0.0542 -0.432413,-0.0778 -0.647505,-0.0718 z m -2.57607,6.37687 h 12.877766 l -3.602364,8.09925 c -0.240916,-0.051 -0.488885,-0.0613 -0.733288,-0.031 l -0.441317,-1.44487 h 0.6196 v -0.79375 h -2.020548 v 0.79375 h 0.572058 l 0.513664,1.68155 c -0.181552,0.0956 -0.348944,0.21533 -0.497644,0.35657 l -7.980908,-6.9448 z m 13.667382,0.17467 1.746147,3.0272 c -1.749888,1.12324 -2.950826,2.92763 -3.313493,4.97644 -0.08604,0.48568 -0.124031,0.97819 -0.112655,1.47123 l -1.023193,0.0672 c -0.140526,-0.54433 -0.481777,-1.01522 -0.95498,-1.31775 l 3.570325,-8.0269 z m -19.605005,3.32693 c 1.125685,0.007 2.261343,0.33193 3.265951,1.00097 l -1.413867,3.50211 c -0.352543,0.71395 -1.09764,1.14649 -1.891874,1.10019 -0.14124,-5.6e-4 -0.271635,0.0746 -0.342615,0.19689 -0.07107,0.1221 -0.07151,0.27267 -0.001,0.39532 0.0704,0.12245 0.200875,0.19844 0.342098,0.19844 1.164685,0.0475 2.235023,-0.63919 2.67839,-1.71824 v 0.001 l 1.280542,-3.17344 c 2.408747,2.13561 2.693672,5.79757 0.644405,8.28063 -2.049413,2.48309 -5.695782,2.89421 -8.245491,0.92965 -2.549844,-1.96437 -3.085789,-5.5981 -1.21233,-8.21655 1.170916,-1.63663 3.019686,-2.50854 4.895825,-2.497 z m 25.513172,0.002 c 1.539915,0.0368 3.045664,0.66893 4.163571,1.83297 1.788795,1.86254 2.179376,4.66464 0.968415,6.94634 -1.211107,2.28144 -3.749432,3.52639 -6.292639,3.08509 -2.543061,-0.44091 -4.515334,-2.46804 -4.888589,-5.0245 l 5.234305,-0.34313 c 0.242284,0.31365 0.668625,0.41892 1.028877,0.25373 0.360058,-0.16512 0.558797,-0.55719 0.479557,-0.94568 -0.07919,-0.38876 -0.415345,-0.67123 -0.811321,-0.68213 l -2.614308,-4.53202 c 0.871921,-0.42045 1.808184,-0.61276 2.732132,-0.59067 z m -3.422015,0.98134 2.591576,4.49275 -0.120407,0.23668 -5.160925,0.33848 c -0.02514,-2.03781 0.988933,-3.94806 2.689756,-5.06791 z"
       id="path19"
       inkscape:connector-curvature="0" />
    <rect
       transform="rotate(-45)"
       style="opacity:1;fill:#dc0a14;fill-opacity:1;fill-rule:nonzero;stroke:none;stroke-width:1.7125293;stroke-linecap:square;stroke-linejoin:round;stroke-miterlimit:4;stroke-dasharray:none;stroke-opacity:1;paint-order:stroke fill markers"
       id="rect1947"
       width="6"
       height="58"
       x="-169.87718"
       y="181.01068" />
  </g>
</svg>
